<svg width="242" height="168" viewBox="0 0 242 168" fill="none" xmlns="http://www.w3.org/2000/svg">
<g filter="url(#filter0_d_18_22)">
<rect x="15" y="16" width="208" height="138" rx="15" fill="url(#paint0_linear_18_22)"/>
</g>
<g filter="url(#filter1_f_18_22)">
<ellipse cx="200" cy="155.5" rx="7" ry="6.5" fill="white"/>
<path d="M206.5 155.5C206.5 158.779 203.625 161.5 200 161.5C196.375 161.5 193.5 158.779 193.5 155.5C193.5 152.221 196.375 149.5 200 149.5C203.625 149.5 206.5 152.221 206.5 155.5Z" stroke="#1C0102"/>
</g>
<g filter="url(#filter2_f_18_22)">
<ellipse cx="187" cy="156.5" rx="7" ry="6.5" fill="white"/>
<path d="M193.5 156.5C193.5 159.779 190.625 162.5 187 162.5C183.375 162.5 180.5 159.779 180.5 156.5C180.5 153.221 183.375 150.5 187 150.5C190.625 150.5 193.5 153.221 193.5 156.5Z" stroke="#1C0102"/>
</g>
<g filter="url(#filter3_f_18_22)">
<ellipse cx="133" cy="156.5" rx="7" ry="6.5" fill="white"/>
<path d="M139.5 156.5C139.5 159.779 136.625 162.5 133 162.5C129.375 162.5 126.5 159.779 126.5 156.5C126.5 153.221 129.375 150.5 133 150.5C136.625 150.5 139.5 153.221 139.5 156.5Z" stroke="#1C0102"/>
</g>
<g filter="url(#filter4_f_18_22)">
<ellipse cx="92" cy="156.5" rx="7" ry="6.5" fill="white"/>
<path d="M98.5 156.5C98.5 159.779 95.6254 162.5 92 162.5C88.3746 162.5 85.5 159.779 85.5 156.5C85.5 153.221 88.3746 150.5 92 150.5C95.6254 150.5 98.5 153.221 98.5 156.5Z" stroke="#1C0102"/>
</g>
<g filter="url(#filter5_f_18_22)">
<ellipse cx="16" cy="144.5" rx="7" ry="6.5" fill="white"/>
<path d="M22.5 144.5C22.5 147.779 19.6254 150.5 16 150.5C12.3746 150.5 9.5 147.779 9.5 144.5C9.5 141.221 12.3746 138.5 16 138.5C19.6254 138.5 22.5 141.221 22.5 144.5Z" stroke="#1C0102"/>
</g>
<g filter="url(#filter6_f_18_22)">
<ellipse cx="15" cy="43.5" rx="7" ry="6.5" fill="white"/>
<path d="M21.5 43.5C21.5 46.7795 18.6254 49.5 15 49.5C11.3746 49.5 8.5 46.7795 8.5 43.5C8.5 40.2205 11.3746 37.5 15 37.5C18.6254 37.5 21.5 40.2205 21.5 43.5Z" stroke="#1C0102"/>
</g>
<g filter="url(#filter7_f_18_22)">
<ellipse cx="16" cy="31.5" rx="7" ry="6.5" fill="white"/>
<path d="M22.5 31.5C22.5 34.7795 19.6254 37.5 16 37.5C12.3746 37.5 9.5 34.7795 9.5 31.5C9.5 28.2205 12.3746 25.5 16 25.5C19.6254 25.5 22.5 28.2205 22.5 31.5Z" stroke="#1C0102"/>
</g>
<g filter="url(#filter8_f_18_22)">
<ellipse cx="21" cy="21.5" rx="7" ry="6.5" fill="white"/>
<path d="M27.5 21.5C27.5 24.7795 24.6254 27.5 21 27.5C17.3746 27.5 14.5 24.7795 14.5 21.5C14.5 18.2205 17.3746 15.5 21 15.5C24.6254 15.5 27.5 18.2205 27.5 21.5Z" stroke="#1C0102"/>
</g>
<g filter="url(#filter9_f_18_22)">
<ellipse cx="15" cy="56.5" rx="7" ry="6.5" fill="white"/>
<path d="M21.5 56.5C21.5 59.7795 18.6254 62.5 15 62.5C11.3746 62.5 8.5 59.7795 8.5 56.5C8.5 53.2205 11.3746 50.5 15 50.5C18.6254 50.5 21.5 53.2205 21.5 56.5Z" stroke="#1C0102"/>
</g>
<g filter="url(#filter10_f_18_22)">
<ellipse cx="15" cy="67.5" rx="7" ry="6.5" fill="white"/>
<path d="M21.5 67.5C21.5 70.7795 18.6254 73.5 15 73.5C11.3746 73.5 8.5 70.7795 8.5 67.5C8.5 64.2205 11.3746 61.5 15 61.5C18.6254 61.5 21.5 64.2205 21.5 67.5Z" stroke="#1C0102"/>
</g>
<g filter="url(#filter11_f_18_22)">
<ellipse cx="15" cy="80.5" rx="7" ry="6.5" fill="white"/>
<path d="M21.5 80.5C21.5 83.7795 18.6254 86.5 15 86.5C11.3746 86.5 8.5 83.7795 8.5 80.5C8.5 77.2205 11.3746 74.5 15 74.5C18.6254 74.5 21.5 77.2205 21.5 80.5Z" stroke="#1C0102"/>
</g>
<g filter="url(#filter12_f_18_22)">
<ellipse cx="15" cy="93.5" rx="7" ry="6.5" fill="white"/>
<path d="M21.5 93.5C21.5 96.7795 18.6254 99.5 15 99.5C11.3746 99.5 8.5 96.7795 8.5 93.5C8.5 90.2205 11.3746 87.5 15 87.5C18.6254 87.5 21.5 90.2205 21.5 93.5Z" stroke="#1C0102"/>
</g>
<g filter="url(#filter13_f_18_22)">
<ellipse cx="15" cy="106.5" rx="7" ry="6.5" fill="white"/>
<path d="M21.5 106.5C21.5 109.779 18.6254 112.5 15 112.5C11.3746 112.5 8.5 109.779 8.5 106.5C8.5 103.221 11.3746 100.5 15 100.5C18.6254 100.5 21.5 103.221 21.5 106.5Z" stroke="#1C0102"/>
</g>
<g filter="url(#filter14_f_18_22)">
<ellipse cx="15" cy="118.5" rx="7" ry="6.5" fill="white"/>
<path d="M21.5 118.5C21.5 121.779 18.6254 124.5 15 124.5C11.3746 124.5 8.5 121.779 8.5 118.5C8.5 115.221 11.3746 112.5 15 112.5C18.6254 112.5 21.5 115.221 21.5 118.5Z" stroke="#1C0102"/>
</g>
<g filter="url(#filter15_f_18_22)">
<ellipse cx="15" cy="131.5" rx="7" ry="6.5" fill="white"/>
<path d="M21.5 131.5C21.5 134.779 18.6254 137.5 15 137.5C11.3746 137.5 8.5 134.779 8.5 131.5C8.5 128.221 11.3746 125.5 15 125.5C18.6254 125.5 21.5 128.221 21.5 131.5Z" stroke="#1C0102"/>
</g>
<g filter="url(#filter16_f_18_22)">
<ellipse cx="23" cy="154.5" rx="7" ry="6.5" fill="white"/>
<path d="M29.5 154.5C29.5 157.779 26.6254 160.5 23 160.5C19.3746 160.5 16.5 157.779 16.5 154.5C16.5 151.221 19.3746 148.5 23 148.5C26.6254 148.5 29.5 151.221 29.5 154.5Z" stroke="#1C0102"/>
</g>
<g filter="url(#filter17_f_18_22)">
<ellipse cx="36" cy="156.5" rx="7" ry="6.5" fill="white"/>
<path d="M42.5 156.5C42.5 159.779 39.6254 162.5 36 162.5C32.3746 162.5 29.5 159.779 29.5 156.5C29.5 153.221 32.3746 150.5 36 150.5C39.6254 150.5 42.5 153.221 42.5 156.5Z" stroke="#1C0102"/>
</g>
<g filter="url(#filter18_f_18_22)">
<ellipse cx="50" cy="156.5" rx="7" ry="6.5" fill="white"/>
<path d="M56.5 156.5C56.5 159.779 53.6254 162.5 50 162.5C46.3746 162.5 43.5 159.779 43.5 156.5C43.5 153.221 46.3746 150.5 50 150.5C53.6254 150.5 56.5 153.221 56.5 156.5Z" stroke="#1C0102"/>
</g>
<g filter="url(#filter19_f_18_22)">
<ellipse cx="64" cy="156.5" rx="7" ry="6.5" fill="white"/>
<path d="M70.5 156.5C70.5 159.779 67.6254 162.5 64 162.5C60.3746 162.5 57.5 159.779 57.5 156.5C57.5 153.221 60.3746 150.5 64 150.5C67.6254 150.5 70.5 153.221 70.5 156.5Z" stroke="#1C0102"/>
</g>
<g filter="url(#filter20_f_18_22)">
<ellipse cx="78" cy="156.5" rx="7" ry="6.5" fill="white"/>
<path d="M84.5 156.5C84.5 159.779 81.6254 162.5 78 162.5C74.3746 162.5 71.5 159.779 71.5 156.5C71.5 153.221 74.3746 150.5 78 150.5C81.6254 150.5 84.5 153.221 84.5 156.5Z" stroke="#1C0102"/>
</g>
<g filter="url(#filter21_f_18_22)">
<ellipse cx="106" cy="156.5" rx="7" ry="6.5" fill="white"/>
<path d="M112.5 156.5C112.5 159.779 109.625 162.5 106 162.5C102.375 162.5 99.5 159.779 99.5 156.5C99.5 153.221 102.375 150.5 106 150.5C109.625 150.5 112.5 153.221 112.5 156.5Z" stroke="#1C0102"/>
</g>
<g filter="url(#filter22_f_18_22)">
<ellipse cx="119" cy="156.5" rx="7" ry="6.5" fill="white"/>
<path d="M125.5 156.5C125.5 159.779 122.625 162.5 119 162.5C115.375 162.5 112.5 159.779 112.5 156.5C112.5 153.221 115.375 150.5 119 150.5C122.625 150.5 125.5 153.221 125.5 156.5Z" stroke="#1C0102"/>
</g>
<g filter="url(#filter23_f_18_22)">
<ellipse cx="146" cy="156.5" rx="7" ry="6.5" fill="white"/>
<path d="M152.5 156.5C152.5 159.779 149.625 162.5 146 162.5C142.375 162.5 139.5 159.779 139.5 156.5C139.5 153.221 142.375 150.5 146 150.5C149.625 150.5 152.5 153.221 152.5 156.5Z" stroke="#1C0102"/>
</g>
<g filter="url(#filter24_f_18_22)">
<ellipse cx="160" cy="156.5" rx="7" ry="6.5" fill="white"/>
<path d="M166.5 156.5C166.5 159.779 163.625 162.5 160 162.5C156.375 162.5 153.5 159.779 153.5 156.5C153.5 153.221 156.375 150.5 160 150.5C163.625 150.5 166.5 153.221 166.5 156.5Z" stroke="#1C0102"/>
</g>
<g filter="url(#filter25_f_18_22)">
<ellipse cx="173" cy="156.5" rx="7" ry="6.5" fill="white"/>
<path d="M179.5 156.5C179.5 159.779 176.625 162.5 173 162.5C169.375 162.5 166.5 159.779 166.5 156.5C166.5 153.221 169.375 150.5 173 150.5C176.625 150.5 179.5 153.221 179.5 156.5Z" stroke="#1C0102"/>
</g>
<g filter="url(#filter26_f_18_22)">
<ellipse cx="221" cy="25.5" rx="7" ry="6.5" fill="white"/>
<path d="M227.5 25.5C227.5 28.7795 224.625 31.5 221 31.5C217.375 31.5 214.5 28.7795 214.5 25.5C214.5 22.2205 217.375 19.5 221 19.5C224.625 19.5 227.5 22.2205 227.5 25.5Z" stroke="#1C0102"/>
</g>
<g filter="url(#filter27_f_18_22)">
<ellipse cx="223" cy="37.5" rx="7" ry="6.5" fill="white"/>
<path d="M229.5 37.5C229.5 40.7795 226.625 43.5 223 43.5C219.375 43.5 216.5 40.7795 216.5 37.5C216.5 34.2205 219.375 31.5 223 31.5C226.625 31.5 229.5 34.2205 229.5 37.5Z" stroke="#1C0102"/>
</g>
<g filter="url(#filter28_f_18_22)">
<ellipse cx="223" cy="76.5" rx="7" ry="6.5" fill="white"/>
<path d="M229.5 76.5C229.5 79.7795 226.625 82.5 223 82.5C219.375 82.5 216.5 79.7795 216.5 76.5C216.5 73.2205 219.375 70.5 223 70.5C226.625 70.5 229.5 73.2205 229.5 76.5Z" stroke="#1C0102"/>
</g>
<g filter="url(#filter29_f_18_22)">
<ellipse cx="223" cy="89.5" rx="7" ry="6.5" fill="white"/>
<path d="M229.5 89.5C229.5 92.7795 226.625 95.5 223 95.5C219.375 95.5 216.5 92.7795 216.5 89.5C216.5 86.2205 219.375 83.5 223 83.5C226.625 83.5 229.5 86.2205 229.5 89.5Z" stroke="#1C0102"/>
</g>
<g filter="url(#filter30_f_18_22)">
<ellipse cx="223" cy="102.5" rx="7" ry="6.5" fill="white"/>
<path d="M229.5 102.5C229.5 105.779 226.625 108.5 223 108.5C219.375 108.5 216.5 105.779 216.5 102.5C216.5 99.2205 219.375 96.5 223 96.5C226.625 96.5 229.5 99.2205 229.5 102.5Z" stroke="#1C0102"/>
</g>
<g filter="url(#filter31_f_18_22)">
<ellipse cx="223" cy="114.5" rx="7" ry="6.5" fill="white"/>
<path d="M229.5 114.5C229.5 117.779 226.625 120.5 223 120.5C219.375 120.5 216.5 117.779 216.5 114.5C216.5 111.221 219.375 108.5 223 108.5C226.625 108.5 229.5 111.221 229.5 114.5Z" stroke="#1C0102"/>
</g>
<g filter="url(#filter32_f_18_22)">
<ellipse cx="223" cy="125.5" rx="7" ry="6.5" fill="white"/>
<path d="M229.5 125.5C229.5 128.779 226.625 131.5 223 131.5C219.375 131.5 216.5 128.779 216.5 125.5C216.5 122.221 219.375 119.5 223 119.5C226.625 119.5 229.5 122.221 229.5 125.5Z" stroke="#1C0102"/>
</g>
<g filter="url(#filter33_f_18_22)">
<ellipse cx="222" cy="136.5" rx="7" ry="6.5" fill="white"/>
<path d="M228.5 136.5C228.5 139.779 225.625 142.5 222 142.5C218.375 142.5 215.5 139.779 215.5 136.5C215.5 133.221 218.375 130.5 222 130.5C225.625 130.5 228.5 133.221 228.5 136.5Z" stroke="#1C0102"/>
</g>
<g filter="url(#filter34_f_18_22)">
<ellipse cx="220" cy="147.5" rx="7" ry="6.5" fill="white"/>
<path d="M226.5 147.5C226.5 150.779 223.625 153.5 220 153.5C216.375 153.5 213.5 150.779 213.5 147.5C213.5 144.221 216.375 141.5 220 141.5C223.625 141.5 226.5 144.221 226.5 147.5Z" stroke="#1C0102"/>
</g>
<g filter="url(#filter35_f_18_22)">
<ellipse cx="211" cy="154.5" rx="7" ry="6.5" fill="white"/>
<path d="M217.5 154.5C217.5 157.779 214.625 160.5 211 160.5C207.375 160.5 204.5 157.779 204.5 154.5C204.5 151.221 207.375 148.5 211 148.5C214.625 148.5 217.5 151.221 217.5 154.5Z" stroke="#1C0102"/>
</g>
<g filter="url(#filter36_f_18_22)">
<ellipse cx="223" cy="50.5" rx="7" ry="6.5" fill="white"/>
<path d="M229.5 50.5C229.5 53.7795 226.625 56.5 223 56.5C219.375 56.5 216.5 53.7795 216.5 50.5C216.5 47.2205 219.375 44.5 223 44.5C226.625 44.5 229.5 47.2205 229.5 50.5Z" stroke="#1C0102"/>
</g>
<g filter="url(#filter37_f_18_22)">
<ellipse cx="223" cy="63.5" rx="7" ry="6.5" fill="white"/>
<path d="M229.5 63.5C229.5 66.7795 226.625 69.5 223 69.5C219.375 69.5 216.5 66.7795 216.5 63.5C216.5 60.2205 219.375 57.5 223 57.5C226.625 57.5 229.5 60.2205 229.5 63.5Z" stroke="#1C0102"/>
</g>
<g filter="url(#filter38_f_18_22)">
<ellipse cx="212" cy="18.5" rx="7" ry="6.5" fill="white"/>
<path d="M218.5 18.5C218.5 21.7795 215.625 24.5 212 24.5C208.375 24.5 205.5 21.7795 205.5 18.5C205.5 15.2205 208.375 12.5 212 12.5C215.625 12.5 218.5 15.2205 218.5 18.5Z" stroke="#1C0102"/>
</g>
<g filter="url(#filter39_f_18_22)">
<ellipse cx="32" cy="17.5" rx="7" ry="6.5" fill="white"/>
<path d="M38.5 17.5C38.5 20.7795 35.6254 23.5 32 23.5C28.3746 23.5 25.5 20.7795 25.5 17.5C25.5 14.2205 28.3746 11.5 32 11.5C35.6254 11.5 38.5 14.2205 38.5 17.5Z" stroke="#1C0102"/>
</g>
<g filter="url(#filter40_f_18_22)">
<ellipse cx="46" cy="17.5" rx="7" ry="6.5" fill="white"/>
<path d="M52.5 17.5C52.5 20.7795 49.6254 23.5 46 23.5C42.3746 23.5 39.5 20.7795 39.5 17.5C39.5 14.2205 42.3746 11.5 46 11.5C49.6254 11.5 52.5 14.2205 52.5 17.5Z" stroke="#1C0102"/>
</g>
<g filter="url(#filter41_f_18_22)">
<ellipse cx="60" cy="17.5" rx="7" ry="6.5" fill="white"/>
<path d="M66.5 17.5C66.5 20.7795 63.6254 23.5 60 23.5C56.3746 23.5 53.5 20.7795 53.5 17.5C53.5 14.2205 56.3746 11.5 60 11.5C63.6254 11.5 66.5 14.2205 66.5 17.5Z" stroke="#1C0102"/>
</g>
<g filter="url(#filter42_f_18_22)">
<ellipse cx="74" cy="17.5" rx="7" ry="6.5" fill="white"/>
<path d="M80.5 17.5C80.5 20.7795 77.6254 23.5 74 23.5C70.3746 23.5 67.5 20.7795 67.5 17.5C67.5 14.2205 70.3746 11.5 74 11.5C77.6254 11.5 80.5 14.2205 80.5 17.5Z" stroke="#1C0102"/>
</g>
<g filter="url(#filter43_f_18_22)">
<ellipse cx="88" cy="17.5" rx="7" ry="6.5" fill="white"/>
<path d="M94.5 17.5C94.5 20.7795 91.6254 23.5 88 23.5C84.3746 23.5 81.5 20.7795 81.5 17.5C81.5 14.2205 84.3746 11.5 88 11.5C91.6254 11.5 94.5 14.2205 94.5 17.5Z" stroke="#1C0102"/>
</g>
<g filter="url(#filter44_f_18_22)">
<ellipse cx="102" cy="17.5" rx="7" ry="6.5" fill="white"/>
<path d="M108.5 17.5C108.5 20.7795 105.625 23.5 102 23.5C98.3746 23.5 95.5 20.7795 95.5 17.5C95.5 14.2205 98.3746 11.5 102 11.5C105.625 11.5 108.5 14.2205 108.5 17.5Z" stroke="#1C0102"/>
</g>
<g filter="url(#filter45_f_18_22)">
<ellipse cx="116" cy="17.5" rx="7" ry="6.5" fill="white"/>
<path d="M122.5 17.5C122.5 20.7795 119.625 23.5 116 23.5C112.375 23.5 109.5 20.7795 109.5 17.5C109.5 14.2205 112.375 11.5 116 11.5C119.625 11.5 122.5 14.2205 122.5 17.5Z" stroke="#1C0102"/>
</g>
<g filter="url(#filter46_f_18_22)">
<ellipse cx="130" cy="17.5" rx="7" ry="6.5" fill="white"/>
<path d="M136.5 17.5C136.5 20.7795 133.625 23.5 130 23.5C126.375 23.5 123.5 20.7795 123.5 17.5C123.5 14.2205 126.375 11.5 130 11.5C133.625 11.5 136.5 14.2205 136.5 17.5Z" stroke="#1C0102"/>
</g>
<g filter="url(#filter47_f_18_22)">
<ellipse cx="144" cy="17.5" rx="7" ry="6.5" fill="white"/>
<path d="M150.5 17.5C150.5 20.7795 147.625 23.5 144 23.5C140.375 23.5 137.5 20.7795 137.5 17.5C137.5 14.2205 140.375 11.5 144 11.5C147.625 11.5 150.5 14.2205 150.5 17.5Z" stroke="#1C0102"/>
</g>
<g filter="url(#filter48_f_18_22)">
<ellipse cx="158" cy="18.5" rx="7" ry="6.5" fill="white"/>
<path d="M164.5 18.5C164.5 21.7795 161.625 24.5 158 24.5C154.375 24.5 151.5 21.7795 151.5 18.5C151.5 15.2205 154.375 12.5 158 12.5C161.625 12.5 164.5 15.2205 164.5 18.5Z" stroke="#1C0102"/>
</g>
<g filter="url(#filter49_f_18_22)">
<ellipse cx="172" cy="18.5" rx="7" ry="6.5" fill="white"/>
<path d="M178.5 18.5C178.5 21.7795 175.625 24.5 172 24.5C168.375 24.5 165.5 21.7795 165.5 18.5C165.5 15.2205 168.375 12.5 172 12.5C175.625 12.5 178.5 15.2205 178.5 18.5Z" stroke="#1C0102"/>
</g>
<g filter="url(#filter50_f_18_22)">
<ellipse cx="186" cy="17.5" rx="7" ry="6.5" fill="white"/>
<path d="M192.5 17.5C192.5 20.7795 189.625 23.5 186 23.5C182.375 23.5 179.5 20.7795 179.5 17.5C179.5 14.2205 182.375 11.5 186 11.5C189.625 11.5 192.5 14.2205 192.5 17.5Z" stroke="#1C0102"/>
</g>
<g filter="url(#filter51_f_18_22)">
<ellipse cx="199" cy="17.5" rx="7" ry="6.5" fill="white"/>
<path d="M205.5 17.5C205.5 20.7795 202.625 23.5 199 23.5C195.375 23.5 192.5 20.7795 192.5 17.5C192.5 14.2205 195.375 11.5 199 11.5C202.625 11.5 205.5 14.2205 205.5 17.5Z" stroke="#1C0102"/>
</g>
<defs>
<filter id="filter0_d_18_22" x="11" y="16" width="216" height="146" filterUnits="userSpaceOnUse" color-interpolation-filters="sRGB">
<feFlood flood-opacity="0" result="BackgroundImageFix"/>
<feColorMatrix in="SourceAlpha" type="matrix" values="0 0 0 0 0 0 0 0 0 0 0 0 0 0 0 0 0 0 127 0" result="hardAlpha"/>
<feOffset dy="4"/>
<feGaussianBlur stdDeviation="2"/>
<feComposite in2="hardAlpha" operator="out"/>
<feColorMatrix type="matrix" values="0 0 0 0 0 0 0 0 0 0 0 0 0 0 0 0 0 0 0.25 0"/>
<feBlend mode="normal" in2="BackgroundImageFix" result="effect1_dropShadow_18_22"/>
<feBlend mode="normal" in="SourceGraphic" in2="effect1_dropShadow_18_22" result="shape"/>
</filter>
<filter id="filter1_f_18_22" x="190" y="146" width="20" height="19" filterUnits="userSpaceOnUse" color-interpolation-filters="sRGB">
<feFlood flood-opacity="0" result="BackgroundImageFix"/>
<feBlend mode="normal" in="SourceGraphic" in2="BackgroundImageFix" result="shape"/>
<feGaussianBlur stdDeviation="1.5" result="effect1_foregroundBlur_18_22"/>
</filter>
<filter id="filter2_f_18_22" x="177" y="147" width="20" height="19" filterUnits="userSpaceOnUse" color-interpolation-filters="sRGB">
<feFlood flood-opacity="0" result="BackgroundImageFix"/>
<feBlend mode="normal" in="SourceGraphic" in2="BackgroundImageFix" result="shape"/>
<feGaussianBlur stdDeviation="1.5" result="effect1_foregroundBlur_18_22"/>
</filter>
<filter id="filter3_f_18_22" x="123" y="147" width="20" height="19" filterUnits="userSpaceOnUse" color-interpolation-filters="sRGB">
<feFlood flood-opacity="0" result="BackgroundImageFix"/>
<feBlend mode="normal" in="SourceGraphic" in2="BackgroundImageFix" result="shape"/>
<feGaussianBlur stdDeviation="1.5" result="effect1_foregroundBlur_18_22"/>
</filter>
<filter id="filter4_f_18_22" x="82" y="147" width="20" height="19" filterUnits="userSpaceOnUse" color-interpolation-filters="sRGB">
<feFlood flood-opacity="0" result="BackgroundImageFix"/>
<feBlend mode="normal" in="SourceGraphic" in2="BackgroundImageFix" result="shape"/>
<feGaussianBlur stdDeviation="1.5" result="effect1_foregroundBlur_18_22"/>
</filter>
<filter id="filter5_f_18_22" x="6" y="135" width="20" height="19" filterUnits="userSpaceOnUse" color-interpolation-filters="sRGB">
<feFlood flood-opacity="0" result="BackgroundImageFix"/>
<feBlend mode="normal" in="SourceGraphic" in2="BackgroundImageFix" result="shape"/>
<feGaussianBlur stdDeviation="1.5" result="effect1_foregroundBlur_18_22"/>
</filter>
<filter id="filter6_f_18_22" x="5" y="34" width="20" height="19" filterUnits="userSpaceOnUse" color-interpolation-filters="sRGB">
<feFlood flood-opacity="0" result="BackgroundImageFix"/>
<feBlend mode="normal" in="SourceGraphic" in2="BackgroundImageFix" result="shape"/>
<feGaussianBlur stdDeviation="1.5" result="effect1_foregroundBlur_18_22"/>
</filter>
<filter id="filter7_f_18_22" x="6" y="22" width="20" height="19" filterUnits="userSpaceOnUse" color-interpolation-filters="sRGB">
<feFlood flood-opacity="0" result="BackgroundImageFix"/>
<feBlend mode="normal" in="SourceGraphic" in2="BackgroundImageFix" result="shape"/>
<feGaussianBlur stdDeviation="1.5" result="effect1_foregroundBlur_18_22"/>
</filter>
<filter id="filter8_f_18_22" x="11" y="12" width="20" height="19" filterUnits="userSpaceOnUse" color-interpolation-filters="sRGB">
<feFlood flood-opacity="0" result="BackgroundImageFix"/>
<feBlend mode="normal" in="SourceGraphic" in2="BackgroundImageFix" result="shape"/>
<feGaussianBlur stdDeviation="1.5" result="effect1_foregroundBlur_18_22"/>
</filter>
<filter id="filter9_f_18_22" x="5" y="47" width="20" height="19" filterUnits="userSpaceOnUse" color-interpolation-filters="sRGB">
<feFlood flood-opacity="0" result="BackgroundImageFix"/>
<feBlend mode="normal" in="SourceGraphic" in2="BackgroundImageFix" result="shape"/>
<feGaussianBlur stdDeviation="1.5" result="effect1_foregroundBlur_18_22"/>
</filter>
<filter id="filter10_f_18_22" x="5" y="58" width="20" height="19" filterUnits="userSpaceOnUse" color-interpolation-filters="sRGB">
<feFlood flood-opacity="0" result="BackgroundImageFix"/>
<feBlend mode="normal" in="SourceGraphic" in2="BackgroundImageFix" result="shape"/>
<feGaussianBlur stdDeviation="1.5" result="effect1_foregroundBlur_18_22"/>
</filter>
<filter id="filter11_f_18_22" x="5" y="71" width="20" height="19" filterUnits="userSpaceOnUse" color-interpolation-filters="sRGB">
<feFlood flood-opacity="0" result="BackgroundImageFix"/>
<feBlend mode="normal" in="SourceGraphic" in2="BackgroundImageFix" result="shape"/>
<feGaussianBlur stdDeviation="1.5" result="effect1_foregroundBlur_18_22"/>
</filter>
<filter id="filter12_f_18_22" x="5" y="84" width="20" height="19" filterUnits="userSpaceOnUse" color-interpolation-filters="sRGB">
<feFlood flood-opacity="0" result="BackgroundImageFix"/>
<feBlend mode="normal" in="SourceGraphic" in2="BackgroundImageFix" result="shape"/>
<feGaussianBlur stdDeviation="1.5" result="effect1_foregroundBlur_18_22"/>
</filter>
<filter id="filter13_f_18_22" x="5" y="97" width="20" height="19" filterUnits="userSpaceOnUse" color-interpolation-filters="sRGB">
<feFlood flood-opacity="0" result="BackgroundImageFix"/>
<feBlend mode="normal" in="SourceGraphic" in2="BackgroundImageFix" result="shape"/>
<feGaussianBlur stdDeviation="1.5" result="effect1_foregroundBlur_18_22"/>
</filter>
<filter id="filter14_f_18_22" x="5" y="109" width="20" height="19" filterUnits="userSpaceOnUse" color-interpolation-filters="sRGB">
<feFlood flood-opacity="0" result="BackgroundImageFix"/>
<feBlend mode="normal" in="SourceGraphic" in2="BackgroundImageFix" result="shape"/>
<feGaussianBlur stdDeviation="1.5" result="effect1_foregroundBlur_18_22"/>
</filter>
<filter id="filter15_f_18_22" x="5" y="122" width="20" height="19" filterUnits="userSpaceOnUse" color-interpolation-filters="sRGB">
<feFlood flood-opacity="0" result="BackgroundImageFix"/>
<feBlend mode="normal" in="SourceGraphic" in2="BackgroundImageFix" result="shape"/>
<feGaussianBlur stdDeviation="1.5" result="effect1_foregroundBlur_18_22"/>
</filter>
<filter id="filter16_f_18_22" x="13" y="145" width="20" height="19" filterUnits="userSpaceOnUse" color-interpolation-filters="sRGB">
<feFlood flood-opacity="0" result="BackgroundImageFix"/>
<feBlend mode="normal" in="SourceGraphic" in2="BackgroundImageFix" result="shape"/>
<feGaussianBlur stdDeviation="1.5" result="effect1_foregroundBlur_18_22"/>
</filter>
<filter id="filter17_f_18_22" x="26" y="147" width="20" height="19" filterUnits="userSpaceOnUse" color-interpolation-filters="sRGB">
<feFlood flood-opacity="0" result="BackgroundImageFix"/>
<feBlend mode="normal" in="SourceGraphic" in2="BackgroundImageFix" result="shape"/>
<feGaussianBlur stdDeviation="1.5" result="effect1_foregroundBlur_18_22"/>
</filter>
<filter id="filter18_f_18_22" x="40" y="147" width="20" height="19" filterUnits="userSpaceOnUse" color-interpolation-filters="sRGB">
<feFlood flood-opacity="0" result="BackgroundImageFix"/>
<feBlend mode="normal" in="SourceGraphic" in2="BackgroundImageFix" result="shape"/>
<feGaussianBlur stdDeviation="1.5" result="effect1_foregroundBlur_18_22"/>
</filter>
<filter id="filter19_f_18_22" x="54" y="147" width="20" height="19" filterUnits="userSpaceOnUse" color-interpolation-filters="sRGB">
<feFlood flood-opacity="0" result="BackgroundImageFix"/>
<feBlend mode="normal" in="SourceGraphic" in2="BackgroundImageFix" result="shape"/>
<feGaussianBlur stdDeviation="1.5" result="effect1_foregroundBlur_18_22"/>
</filter>
<filter id="filter20_f_18_22" x="68" y="147" width="20" height="19" filterUnits="userSpaceOnUse" color-interpolation-filters="sRGB">
<feFlood flood-opacity="0" result="BackgroundImageFix"/>
<feBlend mode="normal" in="SourceGraphic" in2="BackgroundImageFix" result="shape"/>
<feGaussianBlur stdDeviation="1.5" result="effect1_foregroundBlur_18_22"/>
</filter>
<filter id="filter21_f_18_22" x="96" y="147" width="20" height="19" filterUnits="userSpaceOnUse" color-interpolation-filters="sRGB">
<feFlood flood-opacity="0" result="BackgroundImageFix"/>
<feBlend mode="normal" in="SourceGraphic" in2="BackgroundImageFix" result="shape"/>
<feGaussianBlur stdDeviation="1.5" result="effect1_foregroundBlur_18_22"/>
</filter>
<filter id="filter22_f_18_22" x="109" y="147" width="20" height="19" filterUnits="userSpaceOnUse" color-interpolation-filters="sRGB">
<feFlood flood-opacity="0" result="BackgroundImageFix"/>
<feBlend mode="normal" in="SourceGraphic" in2="BackgroundImageFix" result="shape"/>
<feGaussianBlur stdDeviation="1.5" result="effect1_foregroundBlur_18_22"/>
</filter>
<filter id="filter23_f_18_22" x="136" y="147" width="20" height="19" filterUnits="userSpaceOnUse" color-interpolation-filters="sRGB">
<feFlood flood-opacity="0" result="BackgroundImageFix"/>
<feBlend mode="normal" in="SourceGraphic" in2="BackgroundImageFix" result="shape"/>
<feGaussianBlur stdDeviation="1.5" result="effect1_foregroundBlur_18_22"/>
</filter>
<filter id="filter24_f_18_22" x="150" y="147" width="20" height="19" filterUnits="userSpaceOnUse" color-interpolation-filters="sRGB">
<feFlood flood-opacity="0" result="BackgroundImageFix"/>
<feBlend mode="normal" in="SourceGraphic" in2="BackgroundImageFix" result="shape"/>
<feGaussianBlur stdDeviation="1.5" result="effect1_foregroundBlur_18_22"/>
</filter>
<filter id="filter25_f_18_22" x="163" y="147" width="20" height="19" filterUnits="userSpaceOnUse" color-interpolation-filters="sRGB">
<feFlood flood-opacity="0" result="BackgroundImageFix"/>
<feBlend mode="normal" in="SourceGraphic" in2="BackgroundImageFix" result="shape"/>
<feGaussianBlur stdDeviation="1.5" result="effect1_foregroundBlur_18_22"/>
</filter>
<filter id="filter26_f_18_22" x="211" y="16" width="20" height="19" filterUnits="userSpaceOnUse" color-interpolation-filters="sRGB">
<feFlood flood-opacity="0" result="BackgroundImageFix"/>
<feBlend mode="normal" in="SourceGraphic" in2="BackgroundImageFix" result="shape"/>
<feGaussianBlur stdDeviation="1.5" result="effect1_foregroundBlur_18_22"/>
</filter>
<filter id="filter27_f_18_22" x="213" y="28" width="20" height="19" filterUnits="userSpaceOnUse" color-interpolation-filters="sRGB">
<feFlood flood-opacity="0" result="BackgroundImageFix"/>
<feBlend mode="normal" in="SourceGraphic" in2="BackgroundImageFix" result="shape"/>
<feGaussianBlur stdDeviation="1.5" result="effect1_foregroundBlur_18_22"/>
</filter>
<filter id="filter28_f_18_22" x="213" y="67" width="20" height="19" filterUnits="userSpaceOnUse" color-interpolation-filters="sRGB">
<feFlood flood-opacity="0" result="BackgroundImageFix"/>
<feBlend mode="normal" in="SourceGraphic" in2="BackgroundImageFix" result="shape"/>
<feGaussianBlur stdDeviation="1.5" result="effect1_foregroundBlur_18_22"/>
</filter>
<filter id="filter29_f_18_22" x="213" y="80" width="20" height="19" filterUnits="userSpaceOnUse" color-interpolation-filters="sRGB">
<feFlood flood-opacity="0" result="BackgroundImageFix"/>
<feBlend mode="normal" in="SourceGraphic" in2="BackgroundImageFix" result="shape"/>
<feGaussianBlur stdDeviation="1.5" result="effect1_foregroundBlur_18_22"/>
</filter>
<filter id="filter30_f_18_22" x="213" y="93" width="20" height="19" filterUnits="userSpaceOnUse" color-interpolation-filters="sRGB">
<feFlood flood-opacity="0" result="BackgroundImageFix"/>
<feBlend mode="normal" in="SourceGraphic" in2="BackgroundImageFix" result="shape"/>
<feGaussianBlur stdDeviation="1.5" result="effect1_foregroundBlur_18_22"/>
</filter>
<filter id="filter31_f_18_22" x="213" y="105" width="20" height="19" filterUnits="userSpaceOnUse" color-interpolation-filters="sRGB">
<feFlood flood-opacity="0" result="BackgroundImageFix"/>
<feBlend mode="normal" in="SourceGraphic" in2="BackgroundImageFix" result="shape"/>
<feGaussianBlur stdDeviation="1.5" result="effect1_foregroundBlur_18_22"/>
</filter>
<filter id="filter32_f_18_22" x="213" y="116" width="20" height="19" filterUnits="userSpaceOnUse" color-interpolation-filters="sRGB">
<feFlood flood-opacity="0" result="BackgroundImageFix"/>
<feBlend mode="normal" in="SourceGraphic" in2="BackgroundImageFix" result="shape"/>
<feGaussianBlur stdDeviation="1.5" result="effect1_foregroundBlur_18_22"/>
</filter>
<filter id="filter33_f_18_22" x="212" y="127" width="20" height="19" filterUnits="userSpaceOnUse" color-interpolation-filters="sRGB">
<feFlood flood-opacity="0" result="BackgroundImageFix"/>
<feBlend mode="normal" in="SourceGraphic" in2="BackgroundImageFix" result="shape"/>
<feGaussianBlur stdDeviation="1.5" result="effect1_foregroundBlur_18_22"/>
</filter>
<filter id="filter34_f_18_22" x="210" y="138" width="20" height="19" filterUnits="userSpaceOnUse" color-interpolation-filters="sRGB">
<feFlood flood-opacity="0" result="BackgroundImageFix"/>
<feBlend mode="normal" in="SourceGraphic" in2="BackgroundImageFix" result="shape"/>
<feGaussianBlur stdDeviation="1.5" result="effect1_foregroundBlur_18_22"/>
</filter>
<filter id="filter35_f_18_22" x="201" y="145" width="20" height="19" filterUnits="userSpaceOnUse" color-interpolation-filters="sRGB">
<feFlood flood-opacity="0" result="BackgroundImageFix"/>
<feBlend mode="normal" in="SourceGraphic" in2="BackgroundImageFix" result="shape"/>
<feGaussianBlur stdDeviation="1.5" result="effect1_foregroundBlur_18_22"/>
</filter>
<filter id="filter36_f_18_22" x="213" y="41" width="20" height="19" filterUnits="userSpaceOnUse" color-interpolation-filters="sRGB">
<feFlood flood-opacity="0" result="BackgroundImageFix"/>
<feBlend mode="normal" in="SourceGraphic" in2="BackgroundImageFix" result="shape"/>
<feGaussianBlur stdDeviation="1.5" result="effect1_foregroundBlur_18_22"/>
</filter>
<filter id="filter37_f_18_22" x="213" y="54" width="20" height="19" filterUnits="userSpaceOnUse" color-interpolation-filters="sRGB">
<feFlood flood-opacity="0" result="BackgroundImageFix"/>
<feBlend mode="normal" in="SourceGraphic" in2="BackgroundImageFix" result="shape"/>
<feGaussianBlur stdDeviation="1.5" result="effect1_foregroundBlur_18_22"/>
</filter>
<filter id="filter38_f_18_22" x="202" y="9" width="20" height="19" filterUnits="userSpaceOnUse" color-interpolation-filters="sRGB">
<feFlood flood-opacity="0" result="BackgroundImageFix"/>
<feBlend mode="normal" in="SourceGraphic" in2="BackgroundImageFix" result="shape"/>
<feGaussianBlur stdDeviation="1.5" result="effect1_foregroundBlur_18_22"/>
</filter>
<filter id="filter39_f_18_22" x="22" y="8" width="20" height="19" filterUnits="userSpaceOnUse" color-interpolation-filters="sRGB">
<feFlood flood-opacity="0" result="BackgroundImageFix"/>
<feBlend mode="normal" in="SourceGraphic" in2="BackgroundImageFix" result="shape"/>
<feGaussianBlur stdDeviation="1.5" result="effect1_foregroundBlur_18_22"/>
</filter>
<filter id="filter40_f_18_22" x="36" y="8" width="20" height="19" filterUnits="userSpaceOnUse" color-interpolation-filters="sRGB">
<feFlood flood-opacity="0" result="BackgroundImageFix"/>
<feBlend mode="normal" in="SourceGraphic" in2="BackgroundImageFix" result="shape"/>
<feGaussianBlur stdDeviation="1.5" result="effect1_foregroundBlur_18_22"/>
</filter>
<filter id="filter41_f_18_22" x="50" y="8" width="20" height="19" filterUnits="userSpaceOnUse" color-interpolation-filters="sRGB">
<feFlood flood-opacity="0" result="BackgroundImageFix"/>
<feBlend mode="normal" in="SourceGraphic" in2="BackgroundImageFix" result="shape"/>
<feGaussianBlur stdDeviation="1.5" result="effect1_foregroundBlur_18_22"/>
</filter>
<filter id="filter42_f_18_22" x="64" y="8" width="20" height="19" filterUnits="userSpaceOnUse" color-interpolation-filters="sRGB">
<feFlood flood-opacity="0" result="BackgroundImageFix"/>
<feBlend mode="normal" in="SourceGraphic" in2="BackgroundImageFix" result="shape"/>
<feGaussianBlur stdDeviation="1.5" result="effect1_foregroundBlur_18_22"/>
</filter>
<filter id="filter43_f_18_22" x="78" y="8" width="20" height="19" filterUnits="userSpaceOnUse" color-interpolation-filters="sRGB">
<feFlood flood-opacity="0" result="BackgroundImageFix"/>
<feBlend mode="normal" in="SourceGraphic" in2="BackgroundImageFix" result="shape"/>
<feGaussianBlur stdDeviation="1.5" result="effect1_foregroundBlur_18_22"/>
</filter>
<filter id="filter44_f_18_22" x="92" y="8" width="20" height="19" filterUnits="userSpaceOnUse" color-interpolation-filters="sRGB">
<feFlood flood-opacity="0" result="BackgroundImageFix"/>
<feBlend mode="normal" in="SourceGraphic" in2="BackgroundImageFix" result="shape"/>
<feGaussianBlur stdDeviation="1.5" result="effect1_foregroundBlur_18_22"/>
</filter>
<filter id="filter45_f_18_22" x="106" y="8" width="20" height="19" filterUnits="userSpaceOnUse" color-interpolation-filters="sRGB">
<feFlood flood-opacity="0" result="BackgroundImageFix"/>
<feBlend mode="normal" in="SourceGraphic" in2="BackgroundImageFix" result="shape"/>
<feGaussianBlur stdDeviation="1.5" result="effect1_foregroundBlur_18_22"/>
</filter>
<filter id="filter46_f_18_22" x="120" y="8" width="20" height="19" filterUnits="userSpaceOnUse" color-interpolation-filters="sRGB">
<feFlood flood-opacity="0" result="BackgroundImageFix"/>
<feBlend mode="normal" in="SourceGraphic" in2="BackgroundImageFix" result="shape"/>
<feGaussianBlur stdDeviation="1.5" result="effect1_foregroundBlur_18_22"/>
</filter>
<filter id="filter47_f_18_22" x="134" y="8" width="20" height="19" filterUnits="userSpaceOnUse" color-interpolation-filters="sRGB">
<feFlood flood-opacity="0" result="BackgroundImageFix"/>
<feBlend mode="normal" in="SourceGraphic" in2="BackgroundImageFix" result="shape"/>
<feGaussianBlur stdDeviation="1.5" result="effect1_foregroundBlur_18_22"/>
</filter>
<filter id="filter48_f_18_22" x="148" y="9" width="20" height="19" filterUnits="userSpaceOnUse" color-interpolation-filters="sRGB">
<feFlood flood-opacity="0" result="BackgroundImageFix"/>
<feBlend mode="normal" in="SourceGraphic" in2="BackgroundImageFix" result="shape"/>
<feGaussianBlur stdDeviation="1.5" result="effect1_foregroundBlur_18_22"/>
</filter>
<filter id="filter49_f_18_22" x="162" y="9" width="20" height="19" filterUnits="userSpaceOnUse" color-interpolation-filters="sRGB">
<feFlood flood-opacity="0" result="BackgroundImageFix"/>
<feBlend mode="normal" in="SourceGraphic" in2="BackgroundImageFix" result="shape"/>
<feGaussianBlur stdDeviation="1.5" result="effect1_foregroundBlur_18_22"/>
</filter>
<filter id="filter50_f_18_22" x="176" y="8" width="20" height="19" filterUnits="userSpaceOnUse" color-interpolation-filters="sRGB">
<feFlood flood-opacity="0" result="BackgroundImageFix"/>
<feBlend mode="normal" in="SourceGraphic" in2="BackgroundImageFix" result="shape"/>
<feGaussianBlur stdDeviation="1.5" result="effect1_foregroundBlur_18_22"/>
</filter>
<filter id="filter51_f_18_22" x="189" y="8" width="20" height="19" filterUnits="userSpaceOnUse" color-interpolation-filters="sRGB">
<feFlood flood-opacity="0" result="BackgroundImageFix"/>
<feBlend mode="normal" in="SourceGraphic" in2="BackgroundImageFix" result="shape"/>
<feGaussianBlur stdDeviation="1.5" result="effect1_foregroundBlur_18_22"/>
</filter>
<linearGradient id="paint0_linear_18_22" x1="168.151" y1="16" x2="200.221" y2="159.105" gradientUnits="userSpaceOnUse">
<stop stop-color="#908888"/>
<stop offset="1" stop-color="#464444"/>
</linearGradient>
</defs>
</svg>
